# xmcd
#
# Track frame offsets:
#   150
#   20305
#   37928
#   62777
#   81915
#   103022
#   125867
#   148921
#   168794
#   200108
#   224469
#   246424
#   282099
#
# Disc length: 4482 seconds
#
# Revision: 0
# Processed by: cddbd v1.4PL0 Copyright (c) Steve Scherf et al.
# Submitted via: CD-Datenbank 4.*
#
DISCID=c611800d
DTITLE=Söhne Mannheims - ZION
DYEAR=2000
DGENRE=Blues
TTITLE0=Volle Kraft Vorraus
TTITLE1=The power of sound
TTITLE2=Jah is changing all
TTITLE3=Komm heim
TTITLE4=Wir haben allen Göttern abgeschworen
TTITLE5=Sofern Du mir nah bist
TTITLE6=Geh davon aus
TTITLE7=Armageddon
TTITLE8=Wir haben euch nichts getan
TTITLE9=Ihr wiisr nicht wo der Himmel ist
TTITLE10=Meine Stadt
TTITLE11=Place geht raus
TTITLE12=test
EXTD=
EXTT0=
EXTT1=
EXTT2=
EXTT3=
EXTT4=
EXTT5=
EXTT6=
EXTT7=
EXTT8=
EXTT9=
EXTT10=
EXTT11=
EXTT12=
PLAYORDER=
